<svg height="32" viewBox="0 0 32 32" width="32" xmlns="http://www.w3.org/2000/svg"><path d="m29.37 26.576-9.962-9.962c-.093-.094-.193-.177-.296-.254l1.764-1.858c.09-.091.176-.186.254-.285 2.342.884 5.091.387 6.973-1.496 1.373-1.374 2.066-3.273 1.898-5.212-.018-.219-.163-.409-.37-.484s-.439-.024-.595.131l-3.192 3.192-3.233-.815-.916-3.334 3.192-3.192c.157-.156.208-.388.132-.595s-.265-.351-.485-.371c-1.939-.167-3.838.525-5.212 1.899-1.881 1.881-2.379 4.628-1.497 6.97-.096.081-.191.167-.285.26l-2.597 2.494-4.769-4.768c-.059-.06-.123-.112-.188-.162.056-.098.11-.199.161-.304 1.007.194 2.848-1.767 4.412-3.331l-4.556-4.556c-2.037 2.037-3.524 3.405-3.331 4.412-.466.228-.881.506-1.176.801l-.642.642c-.417.417-.668.936-.758 1.476-.062.071-.125.146-.188.226l-.239.301c-.007.007-.027.037-.033.045l-.217.303c-.136.181-.254.377-.369.567-.042.07-.085.141-.129.211-.007.012-.014.024-.02.036l-.096.181c-.116.218-.237.444-.341.693l-.017.04c-.122.29-.248.589-.336.907l-.043.137c-.035.113-.07.226-.103.361l-.089.438c-.066.274-.088.544-.108.784l-.013.157c-.033.249-.023.483-.014.689.003.069.006.137.008.229.002.038.003.075.004.112.002.092.005.197.023.308l.056.356c.012.069.022.136.031.2.021.144.043.294.086.436l.233.809c.072.246.305.409.561.391.135-.009.257-.068.347-.158.081-.081.137-.187.154-.307l.121-.822c.009-.065.037-.161.066-.262.021-.07.041-.142.056-.203l.086-.307c.01-.042.031-.082.049-.123.017-.038.034-.078.049-.117.029-.065.056-.13.083-.197.053-.131.103-.255.179-.376.033-.056.064-.111.096-.168.08-.143.155-.277.245-.389.006-.007.011-.014.017-.022l.203-.28c.042-.052.088-.102.134-.152.032-.035.064-.071.105-.117.12-.144.26-.27.396-.393l.073-.065c.101-.093.217-.181.339-.274.05-.037.099-.075.147-.111.062-.04.122-.08.181-.12.11-.075.206-.139.316-.196l.24-.137.243-.119c.085-.044.168-.078.245-.109.046-.019.091-.037.133-.056.043-.015.084-.031.123-.045.052-.019.097-.037.158-.053l.066-.015c.071.116.155.226.256.326l4.717 4.717-10.07 9.672c-.004.004-.008.008-.011.012-1.253 1.253-1.457 3.088-.204 4.341s2.972.932 4.225-.321c.005-.005.01-.01.015-.016l8.883-9.354c.052.062.104.123.162.181l9.961 9.961c1.116 1.117 2.927 1.117 4.043 0 1.116-1.115 1.116-2.926 0-4.042zm-24.364 2.236c-.461.462-1.21.462-1.671 0s-.461-1.209 0-1.671c.461-.461 1.21-.461 1.671 0s.461 1.21 0 1.671z"/></svg>